<?xml version="1.0" encoding="UTF-8" standalone="no"?>
<svg
   xmlns:dc="http://purl.org/dc/elements/1.1/"
   xmlns:cc="http://creativecommons.org/ns#"
   xmlns:rdf="http://www.w3.org/1999/02/22-rdf-syntax-ns#"
   xmlns:svg="http://www.w3.org/2000/svg"
   xmlns="http://www.w3.org/2000/svg"
   xmlns:xlink="http://www.w3.org/1999/xlink"
   id="svg510"
   version="1.1"
   viewBox="0 0 80 80.000001"
   height="80mm"
   width="80mm">
   <style type="text/css">
      .gufa{
         animation: gufa 5s infinite;
         animation-direction: alternate;
      }
      @keyframes gufa {
         0% {fill: #FFAD1F; fill-opacity:0.8;}
         50% {fill: #FFE651; fill-opacity:0.3;}
         100% {fill: #FFAD1F; fill-opacity:0.7;}
      }
      .gufar{
         animation: gufar 3s infinite;
         animation-direction: alternate;
      }
      @keyframes gufar {
         0% {fill: #FFE651; fill-opacity:0.2;}
         50% {fill: #FFAD1F; fill-opacity:0.7;}
         100% {fill: #FFE651; fill-opacity:0.3;}
      }
   </style>
  <defs
     id="defs504">
    <linearGradient
       id="linearGradient4629">
      <stop
         id="stop4625"
         offset="0"
         style="stop-color:#000000;stop-opacity:1;" />
      <stop
         id="stop4627"
         offset="1"
         style="stop-color:#000000;stop-opacity:0;" />
    </linearGradient>
    <linearGradient
       id="linearGradient4587">
      <stop
         id="stop4583"
         offset="0"
         style="stop-color:#ff6600;stop-opacity:1;" />
      <stop
         id="stop4585"
         offset="1"
         style="stop-color:#aa4400;stop-opacity:1" />
    </linearGradient>
    <radialGradient
       gradientUnits="userSpaceOnUse"
       gradientTransform="matrix(0.99999993,0,0,0.53416029,6.2526706e-6,73.643627)"
       r="28.090426"
       fy="149.83206"
       fx="91.551498"
       cy="149.83206"
       cx="91.551498"
       id="radialGradient4589"
       xlink:href="#linearGradient4587" />
    <radialGradient
       gradientUnits="userSpaceOnUse"
       gradientTransform="matrix(1.0052301,0,0,0.19191919,-0.23204074,58.707146)"
       r="26.459682"
       fy="72.650093"
       fx="44.366737"
       cy="72.650093"
       cx="44.366737"
       id="radialGradient4631"
       xlink:href="#linearGradient4629" />
    <radialGradient
       gradientUnits="userSpaceOnUse"
       gradientTransform="matrix(1.0000001,0,0,0.19612348,-3.1815409e-6,58.401704)"
       r="26.598066"
       fy="72.650093"
       fx="44.366737"
       cy="72.650093"
       cx="44.366737"
       id="radialGradient4639"
       xlink:href="#linearGradient4629" />
  </defs>
  <metadata
     id="metadata507">
    <rdf:RDF>
      <cc:Work
         rdf:about="">
        <dc:format>image/svg+xml</dc:format>
        <dc:type
           rdf:resource="http://purl.org/dc/dcmitype/StillImage" />
        <dc:title></dc:title>
      </cc:Work>
    </rdf:RDF>
  </metadata>
  <g
     id="layer3">
    <ellipse
       ry="5.0781207"
       rx="26.459682"
       cy="72.650093"
       cx="44.366737"
       id="path4612"
       style="fill:url(#radialGradient4639);fill-opacity:1.0;stroke-width:0.27676994;stroke:url(#radialGradient4631)" />
  </g>
  <g
     id="layer2">
    <ellipse
       ry="14.900275"
       rx="28.330566"
       cy="58.551613"
       cx="39.555889"
       id="path4591"
       style="fill:#ffe680;fill-opacity:1;stroke-width:0.25267535" />
  </g>
  <g
     transform="translate(-57.180238,-99.50718)"
     id="layer1">
    <path
       style="fill:url(#radialGradient4589);fill-opacity:1;stroke-width:0.57898098"
       class="st1"
       d="m 116.07542,147.16727 c 1.41585,5.50471 -0.56634,10.41753 -0.56634,10.41753 -0.1699,-7.33963 -3.6812,-11.2462 -5.21032,-12.66677 -3.45467,-1.00624 -7.30577,-1.65733 -11.44005,-1.83491 3.05823,6.45177 0.396438,13.02191 0.396438,13.02191 -0.226536,-7.99071 -4.304178,-11.95648 -5.550125,-13.02191 -3.907741,0.23677 -7.588946,0.88786 -10.873713,1.8941 2.718428,6.27419 0.226535,12.60758 0.226535,12.60758 -0.169901,-5.6231 -2.208723,-9.23372 -3.851107,-11.2462 -6.399633,2.78195 -10.53391,6.98448 -10.53391,11.71972 0,8.28667 12.572732,15.03438 28.090427,15.03438 15.517695,0 28.090425,-6.74771 28.090425,-15.03438 -0.0566,-4.26172 -3.39803,-8.16829 -8.77826,-10.89105 z"
       id="path4548" />
    <path
       id="path4550"
       d="m 107.92014,113.07354 c 2.32199,2.66358 1.18931,6.03744 -0.22654,8.99696 -0.84951,1.77571 -2.15209,3.66981 -2.32199,5.85986 -0.22653,3.25548 3.3414,4.79443 4.92715,5.5639 0.73624,0.35515 -0.5097,2.72277 -1.18931,2.42682 -3.22813,-1.47977 -6.39963,-3.72901 -4.92715,-8.93777 1.01941,-3.61062 6.62617,-9.82562 3.45467,-13.37705 -0.50971,-0.59191 -0.28317,-1.18381 0.28317,-0.53272 z"
       class="st1 gufar"
       style="fill:#ffe680;stroke-width:0.57898098">
      <title
         id="title4648">gufa3</title>
    </path>
    <path
       id="path4552"
       d="m 86.965586,110.70592 c 2.321991,2.66358 1.189313,6.03744 -0.226536,8.99696 -0.849508,1.77571 -2.152089,3.66981 -2.321991,5.85986 -0.226535,3.25548 3.341402,4.79443 4.927152,5.56391 0.736241,0.35514 -0.509705,2.72276 -1.189312,2.42681 -3.228134,-1.47977 -6.399634,-3.72901 -4.927152,-8.93777 1.019411,-3.61062 6.626169,-9.82562 3.454669,-13.37705 -0.453071,-0.6511 -0.283169,-1.18381 0.28317,-0.53272 z"
       class="st1 gufar"
       style="fill:#ffe680;stroke-width:0.57898098">
      <title
         id="title4644">gufa1</title>
    </path>
    <path
       id="path4554"
       d="m 96.763255,107.27288 c 2.605161,3.66981 1.30258,8.40505 -0.226536,12.48919 -0.962776,2.54519 -2.378624,5.09038 -2.548526,8.22748 -0.28317,4.55767 3.681205,6.68852 5.493491,7.75395 0.849506,0.47353 -0.56634,3.84739 -1.302581,3.43305 -3.567937,-2.07167 -7.07924,-5.20876 -5.436857,-12.48919 1.132679,-5.03119 7.305774,-13.67301 3.851107,-18.64501 -0.679607,-0.88785 -0.453071,-1.65733 0.169902,-0.76947 z"
       class="st1 gufa"
       style="fill:#ffe680;stroke-width:0.57898098">
      <title
         id="title4646">gufa2</title>
    </path>
    <path
       transform="matrix(-1,0,0,1,193.49136,0.40090429)"
       id="path4621"
       d="m 74.730963,162.62467 c 2.271765,1.87087 3.920107,3.56376 9.844049,4.69954 5.923943,1.13577 16.124608,1.71485 22.784678,0.60116 6.66007,-1.11368 9.77822,-3.92001 12.27271,-4.98897 2.4945,-1.06896 4.36538,-0.40078 1.71503,2.13816 -2.65035,2.53894 -9.82177,6.94869 -18.84257,7.88429 -9.020803,0.9356 -19.88908,-1.6033 -26.170153,-4.89977 -6.281073,-3.29648 -7.973747,-7.34999 -7.372336,-8.35217 0.60141,-1.00217 3.496826,1.04689 5.768592,2.91776 z"
       style="fill:#502d16;fill-opacity:1;stroke:none;stroke-width:0.26458332px;stroke-linecap:butt;stroke-linejoin:miter;stroke-opacity:1" />
  </g>
</svg>
